<?xml version="1.0" standalone="no"?>
<!DOCTYPE svg PUBLIC "-//W3C//DTD SVG 20010904//EN"
 "http://www.w3.org/TR/2001/REC-SVG-20010904/DTD/svg10.dtd">
<svg version="1.0" xmlns="http://www.w3.org/2000/svg"
 width="320.000000pt" height="320.000000pt" viewBox="0 0 320.000000 320.000000"
 preserveAspectRatio="xMidYMid meet">

<g transform="translate(0.000000,320.000000) scale(0.100000,-0.100000)"
fill="#000000" stroke="none">
<path d="M1499 2518 c-1 -18 0 -48 1 -65 l1 -33 -203 -2 -203 -3 -3 -327 -2
-328 202 -2 c195 -3 203 -4 204 -23 1 -11 2 -48 3 -82 1 -35 4 -63 9 -63 4 0
48 39 97 85 l90 84 198 1 197 0 0 395 0 395 -295 0 -295 0 -1 -32z m451 -358
l0 -260 -141 0 c-128 0 -171 -7 -189 -29 -15 -18 -104 -91 -111 -91 -5 0 -9
22 -9 48 0 26 -5 53 -12 60 -8 8 -53 12 -135 12 l-123 0 2 188 3 187 130 5
130 5 3 68 3 67 224 0 225 0 0 -260z"/>
<path d="M1348 2146 c-26 -19 -37 -57 -25 -83 20 -45 93 -47 116 -4 17 30 13
50 -14 76 -27 28 -51 31 -77 11z"/>
<path d="M1558 2149 c-69 -40 -18 -148 56 -119 49 18 59 68 21 105 -26 27 -49
31 -77 14z"/>
<path d="M1755 2135 c-30 -29 -32 -55 -7 -86 38 -45 122 -16 122 43 0 25 -44
68 -70 68 -11 0 -32 -11 -45 -25z"/>
<path d="M597 1743 c-4 -3 -7 -30 -7 -60 l0 -53 45 0 c52 0 62 22 18 38 -24 9
-25 11 -7 11 15 1 23 9 27 28 3 16 3 31 0 35 -5 10 -67 10 -76 1z"/>
<path d="M711 1736 c-17 -21 -5 -54 22 -59 18 -4 17 -5 -5 -6 -16 0 -28 -5
-28 -10 0 -17 29 -32 56 -29 33 4 50 28 39 54 -5 11 -9 28 -9 39 -1 25 -56 34
-75 11z"/>
<path d="M820 1736 c0 -8 7 -16 15 -20 10 -3 15 -19 15 -46 0 -34 3 -41 18
-38 12 2 18 14 20 41 2 24 10 40 23 47 31 17 12 30 -42 30 -35 0 -49 -4 -49
-14z"/>
<path d="M949 1740 c-1 -5 -1 -17 -1 -25 0 -85 -1 -85 40 -85 66 0 99 70 50
104 -25 18 -87 22 -89 6z m71 -50 c0 -11 -7 -20 -15 -20 -8 0 -15 9 -15 20 0
11 7 20 15 20 8 0 15 -9 15 -20z"/>
<path d="M2146 1734 c-9 -23 -8 -24 14 -24 11 0 20 -4 20 -8 0 -5 -9 -17 -20
-27 -32 -29 -25 -45 19 -45 44 0 63 17 38 34 -11 9 -12 17 -5 29 5 10 6 26 3
37 -8 25 -60 28 -69 4z"/>
<path d="M2252 1738 c-17 -17 -15 -76 2 -94 34 -34 96 -3 96 48 0 46 -66 78
-98 46z m54 -33 c4 -8 4 -22 0 -30 -7 -19 -36 -8 -36 14 0 32 26 43 36 16z"/>
<path d="M2377 1743 c-14 -13 -6 -32 15 -35 21 -3 21 -3 -5 -34 -15 -17 -24
-34 -20 -38 10 -10 81 -7 88 4 5 8 11 7 20 0 19 -16 66 -8 79 12 8 13 8 23 -2
39 -7 11 -10 29 -7 40 6 17 1 19 -34 19 -23 0 -41 -2 -41 -3 0 -13 33 -67 41
-67 5 0 9 -4 9 -8 0 -10 -75 -10 -85 0 -3 3 -1 15 6 26 10 17 10 23 0 36 -14
16 -52 22 -64 9z"/>
<path d="M544 1462 c-12 -8 -29 -457 -18 -486 8 -22 70 -22 78 0 3 9 6 77 7
152 0 75 2 133 4 127 3 -11 18 -84 40 -199 9 -44 18 -83 21 -88 3 -4 18 -8 34
-8 23 0 31 5 34 23 19 93 26 128 31 167 13 93 20 81 30 -50 l10 -135 33 -3
c20 -2 34 2 37 10 2 7 1 121 -3 253 l-7 240 -42 3 c-62 5 -74 -14 -98 -141
-20 -111 -35 -131 -47 -61 -22 132 -32 180 -41 192 -10 13 -85 16 -103 4z"/>
<path d="M1049 1456 c-52 -30 -63 -61 -67 -193 -6 -175 2 -225 42 -268 32 -34
36 -35 107 -35 135 0 149 25 149 260 l0 170 -34 37 c-32 35 -38 37 -102 40
-47 2 -77 -1 -95 -11z m109 -78 c14 -14 17 -305 3 -326 -4 -8 -19 -12 -32 -10
-24 3 -24 3 -27 153 -1 83 0 160 3 173 6 24 34 29 53 10z"/>
<path d="M1393 1464 c-10 -4 -13 -65 -13 -255 l0 -249 44 0 c53 0 58 10 56 98
-4 143 1 149 40 47 54 -140 57 -145 95 -145 l35 0 -2 253 -3 252 -40 0 -40 0
-3 -90 c-1 -50 -5 -97 -8 -105 -3 -9 -17 12 -35 55 -54 125 -63 140 -89 142
-14 1 -31 -1 -37 -3z"/>
<path d="M1799 1447 c-22 -14 -39 -37 -47 -62 -21 -65 -2 -111 79 -191 68 -68
85 -99 74 -135 -13 -40 -65 -5 -65 43 0 25 -2 26 -42 21 -24 -3 -47 -9 -51
-13 -4 -4 -3 -28 4 -54 17 -68 57 -96 135 -96 63 1 85 12 116 57 41 64 15 144
-77 233 -64 62 -80 92 -65 121 16 29 38 23 48 -13 8 -31 11 -33 52 -31 23 1
44 4 47 6 12 12 -13 85 -38 109 -23 24 -36 28 -82 28 -40 0 -63 -6 -88 -23z"/>
<path d="M2082 1461 c-8 -5 -12 -22 -10 -42 3 -30 7 -35 38 -39 l35 -5 3 -208
2 -208 53 3 52 3 3 207 2 207 32 3 c25 2 33 9 39 31 13 48 -8 57 -129 57 -59
0 -113 -4 -120 -9z"/>
<path d="M2464 1462 c-11 -7 -16 -26 -49 -197 -8 -44 -20 -102 -25 -130 -19
-96 -28 -160 -23 -167 2 -5 24 -8 48 -8 42 0 44 1 54 38 6 20 11 45 11 55 0
15 7 18 38 15 35 -3 37 -5 42 -43 8 -57 16 -65 66 -65 34 0 44 4 44 16 0 9
-16 100 -36 203 -19 102 -38 204 -41 226 -3 22 -10 46 -16 53 -10 13 -95 17
-113 4z m66 -214 c0 -18 3 -50 6 -70 6 -35 5 -38 -18 -38 l-24 0 9 70 c10 72
27 95 27 38z"/>
</g>
</svg>
